<svg width="16" height="16" viewBox="0 0 16 16" fill="none" xmlns="http://www.w3.org/2000/svg">
<g clip-path="url(#clip0_26701_65927)">
<g opacity="0.4" clip-path="url(#clip1_26701_65927)">
<g clip-path="url(#clip2_26701_65927)">
<g clip-path="url(#clip3_26701_65927)">
<rect width="16" height="16" fill="#79BD28"/>
<g filter="url(#filter0_f_26701_65927)">
<path d="M7.99999 4.3999C7.04521 4.3999 6.12954 4.77919 5.45441 5.45432C4.77928 6.12945 4.39999 7.04512 4.39999 7.9999C4.39999 8.95468 4.77928 9.87036 5.45441 10.5455C6.12954 11.2206 7.04521 11.5999 7.99999 11.5999C8.95477 11.5999 9.87045 11.2206 10.5456 10.5455C11.2207 9.87036 11.6 8.95468 11.6 7.9999C11.6 7.04512 11.2207 6.12945 10.5456 5.45432C9.87045 4.77919 8.95477 4.3999 7.99999 4.3999Z" fill="url(#paint0_linear_26701_65927)" fill-opacity="0.5"/>
</g>
<path fill-rule="evenodd" clip-rule="evenodd" d="M3.58401 8.23988C3.58338 7.21967 3.93602 6.2307 4.582 5.44105C5.22798 4.65139 6.12745 4.10976 7.12755 3.9082C8.12766 3.70664 9.16671 3.85758 10.0681 4.33538C10.9696 4.81317 11.6777 5.58834 12.0723 6.52916L12.4256 6.38132C12.1458 5.71375 11.7186 5.11811 11.176 4.63899C10.6334 4.15986 9.98944 3.80966 9.29236 3.61459C8.59528 3.41952 7.86311 3.38464 7.15065 3.51254C6.43818 3.64045 5.76387 3.92784 5.17818 4.3532C4.59249 4.77857 4.11058 5.33089 3.76853 5.96883C3.42648 6.60677 3.23315 7.31381 3.20299 8.03704C3.17283 8.76027 3.30664 9.48095 3.59439 10.1452C3.88215 10.8094 4.3164 11.3999 4.86465 11.8725L5.12001 11.5826C4.63875 11.1686 4.25243 10.6557 3.98736 10.0788C3.72229 9.50195 3.58471 8.87472 3.58401 8.23988ZM10.6668 5.94199C10.6705 6.03864 10.6376 6.13313 10.5747 6.20659L8.73921 8.04787C8.75729 8.1103 8.76698 8.17487 8.76801 8.23987C8.76801 8.39176 8.72296 8.54025 8.63858 8.66655C8.55419 8.79284 8.43424 8.89128 8.29391 8.94941C8.15357 9.00754 7.99915 9.02274 7.85018 8.99311C7.7012 8.96348 7.56436 8.89033 7.45695 8.78293C7.34954 8.67552 7.2764 8.53867 7.24676 8.3897C7.21713 8.24072 7.23234 8.0863 7.29047 7.94597C7.3486 7.80563 7.44703 7.68569 7.57333 7.6013C7.69963 7.51691 7.84811 7.47187 8.00001 7.47187C8.065 7.47289 8.12957 7.48258 8.19201 7.50067L10.0333 5.66515C10.1067 5.60224 10.2012 5.56937 10.2979 5.5731C10.3945 5.57683 10.4862 5.6169 10.5546 5.68528C10.623 5.75367 10.663 5.84535 10.6668 5.94199ZM7.78667 8.55915C7.84982 8.60135 7.92406 8.62387 8.00001 8.62387C8.10185 8.62387 8.19952 8.58341 8.27154 8.5114C8.34355 8.43938 8.38401 8.34171 8.38401 8.23987C8.38401 8.16392 8.36149 8.08968 8.31929 8.02653C8.2771 7.96338 8.21712 7.91416 8.14696 7.8851C8.07679 7.85603 7.99958 7.84843 7.92509 7.86325C7.8506 7.87806 7.78218 7.91464 7.72848 7.96834C7.67477 8.02204 7.6382 8.09046 7.62338 8.16495C7.60857 8.23944 7.61617 8.31665 7.64524 8.38682C7.6743 8.45698 7.72352 8.51696 7.78667 8.55915ZM12.2893 7.22995L12.6733 7.14163C12.8422 7.86405 12.8422 8.6157 12.6733 9.33811L12.2893 9.24979C12.4453 8.58555 12.4453 7.89419 12.2893 7.22995ZM12.0723 9.95061L12.4256 10.0985C12.1378 10.7812 11.6963 11.3884 11.1354 11.8725L11.1085 11.8437L11.4157 12.3775H9.64353L10.5306 10.8415L10.9318 11.5385C11.4255 11.1007 11.8152 10.5582 12.0723 9.95061ZM10.5267 11.6095L10.304 11.9935H10.7475L10.5267 11.6095Z" fill="white"/>
</g>
</g>
</g>
<g style="mix-blend-mode:color">
<rect width="16" height="16" fill="white"/>
</g>
</g>
<rect x="0.5" y="0.5" width="15" height="15" rx="3.5" stroke="#323233" stroke-opacity="0.3"/>
<defs>
<filter id="filter0_f_26701_65927" x="0.399994" y="0.399902" width="15.2" height="15.2002" filterUnits="userSpaceOnUse" color-interpolation-filters="sRGB">
<feFlood flood-opacity="0" result="BackgroundImageFix"/>
<feBlend mode="normal" in="SourceGraphic" in2="BackgroundImageFix" result="shape"/>
<feGaussianBlur stdDeviation="2" result="effect1_foregroundBlur_26701_65927"/>
</filter>
<linearGradient id="paint0_linear_26701_65927" x1="4.39999" y1="4.3999" x2="11.6" y2="11.5999" gradientUnits="userSpaceOnUse">
<stop stop-color="#008CD6"/>
<stop offset="1" stop-color="#00CC66"/>
</linearGradient>
<clipPath id="clip0_26701_65927">
<rect width="16" height="16" rx="4" fill="white"/>
</clipPath>
<clipPath id="clip1_26701_65927">
<rect width="16" height="16" fill="white"/>
</clipPath>
<clipPath id="clip2_26701_65927">
<rect width="16" height="16" fill="white"/>
</clipPath>
<clipPath id="clip3_26701_65927">
<rect width="16" height="16" fill="white"/>
</clipPath>
</defs>
</svg>
