<svg width="1011" height="57" viewBox="0 0 1011 57" fill="none" xmlns="http://www.w3.org/2000/svg">
<rect x="0.701172" y="30.5117" width="1009.44" height="25.5443" fill="white"/>
<rect x="0.701172" y="56.0547" width="1009.44" height="0.709564" fill="#DFE1E4"/>
<line x1="11.0166" y1="43.4961" x2="19.8306" y2="43.4961" stroke="#BABCBE" stroke-linecap="round" stroke-linejoin="round"/>
<path d="M15.4236 39.0273L10.5166 43.2847L15.4236 47.5421" stroke="#BABCBE" stroke-linecap="round" stroke-linejoin="round"/>
<line x1="42.2607" y1="43.0703" x2="33.4468" y2="43.0703" stroke="#BABCBE" stroke-linecap="round" stroke-linejoin="round"/>
<path d="M37.8537 47.5391L42.7607 43.2817L37.8537 39.0243" stroke="#BABCBE" stroke-linecap="round" stroke-linejoin="round"/>
<path d="M65.193 42.5694L60.286 42.5694L65.193 37.6025L65.193 42.5694Z" fill="#C4C4C4"/>
<path d="M64.4921 44.5011C63.9641 46.2597 62.3206 47.5421 60.375 47.5421C58.003 47.5421 56.0801 45.636 56.0801 43.2847C56.0801 40.9334 58.003 39.0273 60.375 39.0273C61.647 39.0273 62.7899 39.5755 63.5763 40.4465" stroke="#C4C4C4"/>
<path fill-rule="evenodd" clip-rule="evenodd" d="M86.2232 53.2193H86.2238H970.884C970.884 53.2193 970.884 53.2193 970.885 53.2193C976.304 53.219 980.698 48.7716 980.698 43.2854C980.698 37.7993 976.304 33.3519 970.885 33.3516C970.884 33.3516 970.884 33.3516 970.884 33.3516H86.2238H86.2232C80.8031 33.3516 76.4092 37.7991 76.4092 43.2854C76.4092 48.7718 80.8031 53.2193 86.2232 53.2193Z" fill="#F1F3F4"/>
<path fill-rule="evenodd" clip-rule="evenodd" d="M89.0281 38.5586C88.5292 38.5586 87.8723 38.7608 87.3399 39.3026C86.7913 39.8609 86.4443 40.7062 86.4443 41.8669H88.1069C88.1069 41.046 88.3441 40.6528 88.5257 40.4679C88.7235 40.2666 88.9428 40.2212 89.0281 40.2212V38.5586ZM89.0285 38.5586C89.5273 38.5586 90.1843 38.7608 90.7167 39.3026C91.2653 39.8609 91.6123 40.7062 91.6123 41.8669H89.9497C89.9497 41.046 89.7125 40.6528 89.5309 40.4679C89.333 40.2666 89.1138 40.2212 89.0285 40.2212V38.5586Z" fill="#626365"/>
<rect x="86.2227" y="41.8633" width="5.60799" height="4.96694" rx="1.66257" fill="#626365"/>
<ellipse cx="994.367" cy="40.0917" rx="1.05148" ry="1.06434" fill="#5F6369"/>
<ellipse cx="994.367" cy="43.6386" rx="1.05148" ry="1.06434" fill="#5F6369"/>
<ellipse cx="994.367" cy="47.1893" rx="1.05148" ry="1.06434" fill="#5F6369"/>
<g filter="url(#filter0_i_5846_33019)">
<path d="M0.701172 9.01987C0.701172 4.42882 4.42295 0.707031 9.014 0.707031H1001.83C1006.42 0.707031 1010.14 4.42881 1010.14 9.01986V30.5087H0.701172V9.01987Z" fill="#DEE1E7"/>
</g>
<path fill-rule="evenodd" clip-rule="evenodd" d="M54.6802 19.6873C54.6802 12.3416 60.635 6.38672 67.9807 6.38672H209.619C216.965 6.38672 222.92 12.3416 222.92 19.6872V26.7272C222.983 28.8266 224.684 30.5089 226.774 30.5089H222.92V30.5119H54.6802V30.5089H50.8241C52.9535 30.5089 54.6796 28.7617 54.6796 26.6063V23.4133H54.6802V19.6873ZM50.8241 30.5089H50.4736V30.493C50.5891 30.5035 50.706 30.5089 50.8241 30.5089ZM226.774 30.5089H227.124V30.493C227.009 30.5035 226.892 30.5089 226.774 30.5089Z" fill="white"/>
<rect x="180.859" y="11.3555" width="21.03" height="14.1913" fill="url(#paint0_linear_5846_33019)"/>
<line y1="-0.5" x2="7.75822" y2="-0.5" transform="matrix(-0.7028 0.711388 -0.7028 -0.711388 214.025 15.2734)" stroke="#3C4043" stroke-linejoin="round"/>
<line y1="-0.5" x2="7.75823" y2="-0.5" transform="matrix(0.7028 0.711388 -0.7028 0.711388 208.573 15.7773)" stroke="#3C4043" stroke-linejoin="round"/>
<path d="M44.734 15.6089C44.734 17.5107 43.2136 19.035 41.3593 19.035C39.505 19.035 37.9846 17.5107 37.9846 15.6089C37.9846 13.7072 39.505 12.1828 41.3593 12.1828C43.2136 12.1828 44.734 13.7072 44.734 15.6089Z" fill="#00D641" stroke="#12B829" stroke-width="1.66257"/>
<path d="M30.7135 15.6089C30.7135 17.5107 29.1931 19.035 27.3388 19.035C25.4845 19.035 23.9641 17.5107 23.9641 15.6089C23.9641 13.7072 25.4845 12.1828 27.3388 12.1828C29.1931 12.1828 30.7135 13.7072 30.7135 15.6089Z" fill="#FFBD00" stroke="#E79F13" stroke-width="1.66257"/>
<path d="M16.694 15.6089C16.694 17.5107 15.1736 19.035 13.3193 19.035C11.465 19.035 9.94456 17.5107 9.94456 15.6089C9.94456 13.7072 11.465 12.1828 13.3193 12.1828C15.1736 12.1828 16.694 13.7072 16.694 15.6089Z" fill="#FF3B47" stroke="#EF1320" stroke-width="1.66257"/>
<line x1="238.141" y1="13.4844" x2="238.141" y2="23.4183" stroke="#3C4043" stroke-linejoin="round"/>
<line x1="233.434" y1="18.6602" x2="243.248" y2="18.6602" stroke="#3C4043" stroke-linejoin="round"/>
<defs>
<filter id="filter0_i_5846_33019" x="0.701172" y="0.707031" width="1009.44" height="29.8008" filterUnits="userSpaceOnUse" color-interpolation-filters="sRGB">
<feFlood flood-opacity="0" result="BackgroundImageFix"/>
<feBlend mode="normal" in="SourceGraphic" in2="BackgroundImageFix" result="shape"/>
<feColorMatrix in="SourceAlpha" type="matrix" values="0 0 0 0 0 0 0 0 0 0 0 0 0 0 0 0 0 0 127 0" result="hardAlpha"/>
<feOffset dy="1.66257"/>
<feComposite in2="hardAlpha" operator="arithmetic" k2="-1" k3="1"/>
<feColorMatrix type="matrix" values="0 0 0 0 0.94902 0 0 0 0 0.952941 0 0 0 0 0.960784 0 0 0 1 0"/>
<feBlend mode="normal" in2="shape" result="effect1_innerShadow_5846_33019"/>
</filter>
<linearGradient id="paint0_linear_5846_33019" x1="201.889" y1="18.4511" x2="180.859" y2="18.4511" gradientUnits="userSpaceOnUse">
<stop stop-color="white"/>
<stop offset="1" stop-color="white" stop-opacity="0"/>
</linearGradient>
</defs>
</svg>
