<svg width="24" height="24" viewBox="0 0 24 24" fill="none" xmlns="http://www.w3.org/2000/svg">
<path fill-rule="evenodd" clip-rule="evenodd" d="M4.22462 5.63685L7.11087 8.51824C6.59382 9.2431 6.23409 10.0878 6.08077 11.0022L2 11.0054V12.9976L6.08019 12.9944C6.23269 13.9089 6.59242 14.7536 7.10916 15.4784L4.22349 18.3689L5.63744 19.7749L8.51941 16.8884C9.24391 17.4049 10.0886 17.7643 11.0028 17.9171L11.0059 21.9995H12.9981L12.995 17.9171C13.9089 17.7643 14.7528 17.4049 15.477 16.8884L18.3692 19.7757L19.7752 18.3618L16.887 15.4782C17.4032 14.7539 17.7623 13.9103 17.9154 12.9967L21.9995 12.9936V11.0014L17.9159 11.0045C17.7634 10.0909 17.404 9.24706 16.8884 8.52279L19.7763 5.63033L18.3624 4.22435L15.4793 7.11226C14.7553 6.5958 13.9109 6.2358 12.9973 6.08244L12.9942 2H11.002L11.0051 6.08132C10.0906 6.23382 9.24621 6.59296 8.52139 7.10916L5.6306 4.22291L4.22462 5.63685ZM7.99809 11.9995C7.99809 9.7899 9.78846 7.99953 11.9981 7.99953C14.2077 7.99953 15.998 9.7899 15.998 11.9995C15.998 14.2091 14.2077 15.9994 11.9981 15.9994C9.78846 15.9994 7.99809 14.2091 7.99809 11.9995Z" fill="#89898A"/>
</svg>
