<svg width="24" height="25" viewBox="0 0 24 25" fill="none" xmlns="http://www.w3.org/2000/svg">
<path d="M12 22.5C6.49 22.5 2 18.01 2 12.5C2 6.99 6.49 2.5 12 2.5C12.72 2.5 13.45 2.58 14.17 2.75C14.57 2.84 14.87 3.16 14.94 3.57C15 3.97 14.82 4.38 14.47 4.59C13.24 5.33 12.5 6.61 12.5 8.01C12.5 10.22 14.29 12.01 16.5 12.01C17.9 12.01 19.18 11.27 19.92 10.04C20.13 9.69 20.53 9.5 20.94 9.57C21.34 9.63 21.67 9.94 21.76 10.34C21.92 11.07 22.01 11.8 22.01 12.51C22.01 18.02 17.52 22.51 12.01 22.51L12 22.5ZM11.63 4.51C7.39 4.7 4 8.21 4 12.5C4 16.79 7.59 20.5 12 20.5C16.41 20.5 19.8 17.11 19.99 12.87C18.99 13.6 17.78 14 16.5 14C13.19 14 10.5 11.31 10.5 8C10.5 6.72 10.9 5.51 11.63 4.51Z" fill="#CCCCCC"/>
</svg>
